<svg width="1595" height="1229" viewBox="0 0 1595 1229" fill="#fff" xmlns="http://www.w3.org/2000/svg">
<path d="M100.748 406.21C207.919 271.958 318.737 133.143 464.048 60.3448C506.051 39.2976 547.652 28.623 587.68 28.623C688.998 28.623 749.622 97.5358 750.197 98.2053C752.819 101.279 756.638 103.071 760.673 103.147L790.896 103.684C794.969 103.769 799.26 101.883 801.995 98.6014C802.579 97.9036 861.6 28.7173 962.121 28.7173C1001.71 28.7173 1043.02 39.3541 1084.9 60.3448C1238.74 137.414 1376.34 312.581 1476.82 440.477C1477.78 441.713 1478.75 442.948 1479.71 444.164C1459.52 432.575 1435.87 418.251 1410.64 402.975C1282.21 325.198 1088.15 207.657 954.973 207.657C926.524 207.657 901.516 212.994 880.648 223.527L879.507 224.168C878.96 224.508 823.758 258.672 774.479 258.672C725.192 258.672 669.991 224.508 669.45 224.168L668.301 223.527C643.791 211.155 614.595 204.884 581.525 204.884C431.135 204.884 223.997 332.111 88.7033 421.297C92.7364 416.243 96.7553 411.207 100.748 406.21V406.21ZM1160.47 313.666C1153.75 318.909 1145.83 323.152 1136.95 327.254C1132.54 329.319 1127.65 331.564 1123.55 333.138L1117.16 335.76L1110.3 338.023C1092.01 344.067 1072.59 348.773 1053.1 352.865C1033.62 357.062 1013.86 360.57 994.126 364.059C974.333 367.321 954.483 370.395 934.558 373.026C914.642 375.667 894.689 378.128 874.698 380.07C854.716 382.117 834.706 383.748 814.744 385.162C804.805 385.662 795.017 386.379 784.814 386.558L777.232 386.784C776.044 386.803 774.545 386.897 773.611 386.85L769.877 386.784L754.94 386.501C735.06 386.539 715.011 384.842 694.984 383.569C684.965 383.107 674.95 381.862 664.923 381.032C654.904 380.07 644.867 379.269 634.851 378.184C614.846 375.733 594.76 373.809 574.795 370.933L544.786 366.963L514.839 362.55L499.873 360.315L485.01 357.797C475.101 356.1 465.178 354.525 455.24 352.46C450.341 351.47 445.158 350.565 440.491 349.499L433.651 347.415C431.382 346.67 429.316 345.425 427.117 344.454C418.604 340.022 411.108 333.506 404.901 325.849C395.427 314.194 388.61 300.342 383.946 285.754C454.209 254.626 523.418 233.117 581.525 233.117C609.892 233.117 634.626 238.284 655.055 248.459C661.958 252.693 719.365 286.895 774.479 286.895C829.567 286.895 886.975 252.703 893.897 248.459C910.691 240.114 931.229 235.889 954.973 235.889C1016.79 235.889 1094.37 263.924 1172.23 301.464C1169.08 305.924 1165.16 310.007 1160.47 313.666V313.666ZM1179.45 773.565C1169.29 778.581 1158.87 783.145 1148.42 787.625C1137.9 791.991 1127.3 796.177 1116.57 800.091C1105.85 804.032 1095.01 807.691 1084.14 811.227L1067.74 816.338L1051.23 821.1C1040.18 824.118 1029.14 827.192 1017.96 829.832C1006.84 832.614 995.634 835.179 984.422 837.687C973.192 840.073 961.942 842.459 950.645 844.561C939.329 846.664 928.023 848.777 916.641 850.54C911.002 851.511 905.345 852.388 899.668 853.237C860.978 857.141 819.364 859.262 774.479 859.262C527.823 859.262 378.811 796.008 280.948 715.676C285.368 711.894 289.874 708.217 294.444 704.633C303.304 697.731 312.424 691.196 321.754 684.982C340.356 672.497 359.797 661.322 379.92 651.666C400.061 642.057 420.733 633.618 441.975 627.064C463.192 620.473 484.859 615.437 506.772 612.335C550.543 605.753 595.202 606.592 638.564 614.306C649.416 616.192 660.171 618.587 670.865 621.189C681.532 623.924 692.136 626.913 702.586 630.393C713.074 633.769 723.399 637.644 733.627 641.746C741.215 644.783 748.698 648.102 756.138 651.506C757.307 653.722 759.023 655.674 761.324 657.06C762.06 657.503 835.366 701.87 854.405 749.491C856.612 755.007 861.921 758.364 867.512 758.364C869.257 758.364 871.039 758.043 872.755 757.355C879.988 754.46 883.505 746.237 880.61 739.005C864.033 697.533 817.158 660.841 792.065 643.453C795.205 641.774 798.392 640.153 801.646 638.644C811.019 634.316 820.76 630.666 830.689 627.611C850.548 621.463 871.237 617.861 892.096 616.597C912.964 615.286 934.011 616.314 954.823 619.237C965.233 620.699 975.596 622.623 985.856 625.037C996.115 627.451 1006.33 630.166 1016.4 633.391C1056.8 646.027 1095.48 664.5 1132.12 686.472C1141.26 692.016 1150.32 697.712 1159.23 703.643C1168.15 709.584 1176.95 715.694 1185.64 721.993C1194.33 728.283 1202.89 734.761 1211.36 741.362C1214.83 744.078 1218.22 746.897 1221.66 749.66C1216.03 753.347 1210.25 756.968 1204.33 760.523C1196.2 765.087 1187.9 769.444 1179.45 773.565V773.565ZM104.524 678.569C102.995 673.732 101.333 668.395 99.5513 662.671C84.5372 614.522 62.9365 545.261 38.2428 501.262C55.6728 510.003 98.4829 535.737 135.145 591.702C225.338 729.415 379.522 887.486 774.479 887.486C1169.42 887.486 1323.61 729.415 1413.81 591.712C1450.2 536.152 1493.18 510.192 1510.67 501.318C1485.97 545.346 1464.39 614.617 1449.37 662.784C1447.6 668.461 1445.95 673.76 1444.43 678.569C1386.34 862.393 1256.57 992.995 1058.77 1066.74C909.88 1122.24 775.827 1122.89 774.498 1122.89H774.469C773.13 1122.89 639.051 1122.24 490.16 1066.73C292.363 992.986 162.619 862.384 104.524 678.569V678.569ZM72.5991 671.073C74.3965 676.844 76.0721 682.209 77.612 687.075C87.0201 716.854 98.3867 745.417 111.64 772.697C131.074 830.502 156.781 881.017 186.923 925.082C187.815 926.384 188.688 927.694 189.579 928.986C192.014 932.485 194.493 935.926 196.983 939.349C198.077 940.849 199.171 942.348 200.272 943.838C202.736 947.148 205.234 950.42 207.742 953.664C208.892 955.144 210.03 956.606 211.19 958.058C213.754 961.293 216.336 964.499 218.955 967.667C220.027 968.978 221.12 970.279 222.226 971.58C224.956 974.834 227.7 978.068 230.495 981.246C231.302 982.189 232.149 983.094 232.975 984.037C246.666 999.436 260.924 1013.88 275.648 1027.41C276.244 1027.98 276.848 1028.55 277.457 1029.1C280.672 1032.04 283.924 1034.91 287.177 1037.76C288.172 1038.62 289.155 1039.49 290.153 1040.36C293.299 1043.08 296.478 1045.75 299.657 1048.39C300.74 1049.29 301.833 1050.19 302.917 1051.09C306.114 1053.7 309.329 1056.3 312.556 1058.83C313.576 1059.63 314.586 1060.42 315.606 1061.21C318.98 1063.82 322.351 1066.42 325.75 1068.95C326.421 1069.46 327.091 1069.93 327.761 1070.43C343.899 1082.38 360.353 1093.45 376.995 1103.66L377.574 1104.03C381.342 1106.32 385.118 1108.57 388.893 1110.79C389.692 1111.25 390.492 1111.74 391.291 1112.19C394.875 1114.28 398.47 1116.33 402.069 1118.34C403.027 1118.88 403.991 1119.4 404.938 1119.94C408.511 1121.92 412.095 1123.87 415.68 1125.77C416.571 1126.25 417.469 1126.72 418.372 1127.2C422.082 1129.15 425.776 1131.08 429.496 1132.96C430.023 1133.23 430.546 1133.48 431.069 1133.74C452.201 1144.38 473.363 1153.83 494.304 1162.21C494.93 1162.46 495.564 1162.71 496.19 1162.97C499.881 1164.44 503.575 1165.87 507.259 1167.27C508.095 1167.59 508.912 1167.91 509.748 1168.22C513.362 1169.59 516.972 1170.93 520.563 1172.23C521.381 1172.52 522.199 1172.82 523.017 1173.11C526.704 1174.42 530.35 1175.73 534.008 1176.99C534.524 1177.17 535.028 1177.33 535.54 1177.52C556.079 1184.55 576.184 1190.62 595.614 1195.83C596.178 1195.99 596.737 1196.14 597.298 1196.29C600.705 1197.2 604.068 1198.07 607.442 1198.94C608.242 1199.15 609.059 1199.36 609.859 1199.55C613.111 1200.38 616.338 1201.18 619.542 1201.95C620.379 1202.16 621.208 1202.35 622.043 1202.55C625.26 1203.32 628.464 1204.07 631.643 1204.8C632.298 1204.96 632.932 1205.09 633.592 1205.23C651.692 1209.33 668.931 1212.71 685.075 1215.49C685.728 1215.6 686.398 1215.72 687.031 1215.83C689.735 1216.29 692.38 1216.73 695.017 1217.15C695.871 1217.29 696.745 1217.42 697.588 1217.57C700.134 1217.96 702.624 1218.35 705.096 1218.72C705.942 1218.86 706.786 1218.98 707.633 1219.11C710.087 1219.48 712.521 1219.83 714.919 1220.17C715.693 1220.27 716.456 1220.38 717.225 1220.49C719.641 1220.83 722.069 1221.16 724.411 1221.47C724.89 1221.53 725.339 1221.58 725.815 1221.64C734.058 1222.71 741.849 1223.62 749.113 1224.36L749.603 1224.43C751.602 1224.63 753.497 1224.83 755.402 1225.01C756.147 1225.08 756.911 1225.15 757.647 1225.22C759.353 1225.39 761.022 1225.53 762.682 1225.68C763.493 1225.76 764.313 1225.83 765.124 1225.9C766.699 1226.03 768.208 1226.16 769.717 1226.28C770.537 1226.35 771.329 1226.42 772.112 1226.47C773.526 1226.58 774.922 1226.69 776.261 1226.79C777.081 1226.85 777.873 1226.9 778.656 1226.96C779.938 1227.04 781.212 1227.14 782.419 1227.21C783.107 1227.26 783.739 1227.3 784.408 1227.33C785.643 1227.4 786.888 1227.49 788.039 1227.56L788.557 1227.58C791.16 1227.73 793.517 1227.84 795.714 1227.94C796.233 1227.98 796.78 1227.99 797.27 1228.01C798.091 1228.05 798.817 1228.08 799.571 1228.1C800.156 1228.13 800.759 1228.15 801.297 1228.17C801.938 1228.2 802.513 1228.22 803.098 1228.23C803.664 1228.25 804.192 1228.27 804.701 1228.29C805.22 1228.29 805.71 1228.31 806.172 1228.32C806.606 1228.33 806.992 1228.33 807.36 1228.34C807.794 1228.35 808.181 1228.36 808.539 1228.37L809.576 1228.38L810.17 1228.39L811.151 1228.4H811.226H811.613C811.613 1228.4 1367.34 1229.14 1515.37 761.429C1531.46 710.612 1561.84 606.762 1594.3 563.3C1594.3 563.3 1582.37 547.345 1578.75 544.356C1567.91 530.758 1556.38 516.095 1544.29 500.734C1544.8 500.007 1545.32 499.262 1545.84 498.565C1548.63 494.83 1549.4 489.955 1547.88 485.542C1546.87 482.591 1544.87 480.177 1542.34 478.479C1541.87 477.451 1541.31 476.452 1540.57 475.537C1527.75 459.61 1513.79 441.854 1499.01 423.042C1396.89 293.053 1257.04 115.009 1097.54 35.1014C1051.7 12.1305 1006.13 0.494178 962.121 0.494178C863.797 0.494178 801.985 57.431 784.983 75.3475L767.189 75.027C750.301 57.6574 687.105 0.39988 587.68 0.39988C543.221 0.39988 497.369 12.0739 451.401 35.1014C300.548 110.69 187.76 251.967 78.6879 388.595C55.7095 417.384 31.9513 447.144 8.5099 475.377C7.71403 476.329 7.12089 477.385 6.6164 478.47C4.08545 480.167 2.08162 482.591 1.06887 485.542C-0.444604 489.955 0.317328 494.83 3.1057 498.565C30.0946 534.737 56.7044 620.086 72.5991 671.073" fill="#4d1d95"/>
</svg>
