<svg width="556" height="232" viewBox="0 0 556 232" fill="#7C3AED" xmlns="http://www.w3.org/2000/svg">
<path d="M54.8807 130.998C52.3321 130.911 43.9176 128.157 34.3982 124.859C19.3057 119.63 10.3969 96.0913 18.5867 82.378C20.4932 79.1858 23.2292 76.5698 26.5038 74.8084L144.246 11.4741C154.644 5.88089 166.053 2.41793 177.806 1.28787C183.257 0.763747 188.745 0.745063 194.199 1.23206L202.308 1.95603C210.01 2.64372 217.469 5.00422 224.164 8.87274L227.373 10.7264C233.352 14.1811 240.136 16 247.041 16C251.318 16 255.567 15.3021 259.619 13.9338L265.1 12.0832C282.426 6.2328 301.298 6.95671 318.125 14.1171L339 23L501 92L554.063 109.366C554.988 109.669 555.311 110.812 554.681 111.554L549.821 117.278C538.988 130.037 526.516 141.307 512.729 150.797C500.947 158.906 488.287 165.659 474.99 170.926L418 193.5L374.671 207.2C358.245 212.393 341.467 216.401 324.467 219.192L305.671 222.278C268.455 228.388 230.51 228.612 193.223 222.942L157.629 217.529C146.59 215.85 135.818 212.737 125.585 208.27L120.035 205.846C88.3595 192.016 64.4501 164.39 55.0377 131.133C55.0155 131.055 54.962 131.001 54.8807 130.998Z" fill="#currentColor"/>
<path d="M174.237 139.715L195.5 141.5H274.315C303.991 141.5 333.554 137.831 362.329 130.575L429.261 113.699C431.207 113.208 431.298 110.476 429.388 109.857L417.87 106.125C394.022 98.396 369.432 93.1796 344.5 90.5603L283.084 84.108C263.395 82.0395 243.569 81.5987 223.807 82.79L117.782 89.1816C115.159 89.3397 113.438 91.9927 114.364 94.4523C123.914 119.83 147.217 137.446 174.237 139.715Z" fill="#fff"/>
</svg>
